<mxfile host="Electron" agent="Mozilla/5.0 (Windows NT 10.0; Win64; x64) AppleWebKit/537.36 (KHTML, like Gecko) draw.io/26.0.9 Chrome/128.0.6613.186 Electron/32.2.5 Safari/537.36" version="26.0.9" pages="3">
  <diagram id="Xqdu1QN01WY6CC66XRHG" name="arquitetura">
    <mxGraphModel dx="1113" dy="860" grid="0" gridSize="10" guides="0" tooltips="1" connect="1" arrows="1" fold="1" page="0" pageScale="1" pageWidth="850" pageHeight="1100" math="0" shadow="0">
      <root>
        <mxCell id="0" />
        <mxCell id="1" parent="0" />
        <mxCell id="9" style="edgeStyle=none;html=1;entryX=0.517;entryY=0.412;entryDx=0;entryDy=0;entryPerimeter=0;" parent="1" source="2" target="20" edge="1">
          <mxGeometry relative="1" as="geometry">
            <mxPoint x="240" y="360" as="targetPoint" />
          </mxGeometry>
        </mxCell>
        <mxCell id="18" value="REST" style="edgeLabel;html=1;align=center;verticalAlign=middle;resizable=0;points=[];" parent="9" vertex="1" connectable="0">
          <mxGeometry x="-0.3337" y="-1" relative="1" as="geometry">
            <mxPoint x="1" y="19" as="offset" />
          </mxGeometry>
        </mxCell>
        <mxCell id="2" value="IHM Scada BR" style="aspect=fixed;html=1;points=[];align=center;image;fontSize=12;image=img/lib/azure2/compute/Virtual_Machine.svg;" parent="1" vertex="1">
          <mxGeometry x="692" y="126" width="69" height="64" as="geometry" />
        </mxCell>
        <mxCell id="10" style="edgeStyle=none;html=1;entryX=0.55;entryY=0.529;entryDx=0;entryDy=0;entryPerimeter=0;" parent="1" source="3" target="6" edge="1">
          <mxGeometry relative="1" as="geometry">
            <mxPoint x="270" y="410" as="targetPoint" />
          </mxGeometry>
        </mxCell>
        <mxCell id="19" value="REST" style="edgeLabel;html=1;align=center;verticalAlign=middle;resizable=0;points=[];" parent="10" vertex="1" connectable="0">
          <mxGeometry x="-0.1321" y="3" relative="1" as="geometry">
            <mxPoint y="4" as="offset" />
          </mxGeometry>
        </mxCell>
        <mxCell id="3" value="IHM HTML Puro" style="aspect=fixed;html=1;points=[];align=center;image;fontSize=12;image=img/lib/azure2/compute/Virtual_Machine.svg;" parent="1" vertex="1">
          <mxGeometry x="358" y="131" width="69" height="64" as="geometry" />
        </mxCell>
        <mxCell id="8" style="edgeStyle=none;html=1;exitX=0.995;exitY=0.63;exitDx=0;exitDy=0;exitPerimeter=0;entryX=0.005;entryY=0.63;entryDx=0;entryDy=0;entryPerimeter=0;" parent="1" source="lPjXOy1hwpFaWnZ9q_PB-39" target="20" edge="1">
          <mxGeometry relative="1" as="geometry">
            <mxPoint x="529" y="390" as="sourcePoint" />
          </mxGeometry>
        </mxCell>
        <mxCell id="16" value="REST" style="edgeLabel;html=1;align=center;verticalAlign=middle;resizable=0;points=[];" parent="8" vertex="1" connectable="0">
          <mxGeometry x="0.311" y="1" relative="1" as="geometry">
            <mxPoint x="-24" y="15" as="offset" />
          </mxGeometry>
        </mxCell>
        <mxCell id="11" value="Web Service" style="swimlane;startSize=0;labelPosition=center;verticalLabelPosition=bottom;align=center;verticalAlign=top;" parent="1" vertex="1">
          <mxGeometry x="330" y="240" width="220" height="220" as="geometry">
            <mxRectangle x="330" y="240" width="103" height="26" as="alternateBounds" />
          </mxGeometry>
        </mxCell>
        <mxCell id="14" style="edgeStyle=none;html=1;dashed=1;" parent="11" source="lPjXOy1hwpFaWnZ9q_PB-39" target="7" edge="1">
          <mxGeometry relative="1" as="geometry">
            <mxPoint x="164.5" y="118" as="sourcePoint" />
          </mxGeometry>
        </mxCell>
        <mxCell id="13" style="edgeStyle=none;html=1;dashed=1;entryX=0.005;entryY=0.63;entryDx=0;entryDy=0;entryPerimeter=0;" parent="11" source="6" target="lPjXOy1hwpFaWnZ9q_PB-39" edge="1">
          <mxGeometry relative="1" as="geometry">
            <mxPoint x="130" y="150.33014354066995" as="targetPoint" />
          </mxGeometry>
        </mxCell>
        <mxCell id="6" value="" style="sketch=0;html=1;dashed=0;whitespace=wrap;fillColor=#2875E2;strokeColor=#ffffff;points=[[0.005,0.63,0],[0.1,0.2,0],[0.9,0.2,0],[0.5,0,0],[0.995,0.63,0],[0.72,0.99,0],[0.5,1,0],[0.28,0.99,0]];verticalLabelPosition=bottom;align=center;verticalAlign=top;shape=mxgraph.kubernetes.icon;prIcon=api" parent="11" vertex="1">
          <mxGeometry x="30" y="117" width="60" height="68" as="geometry" />
        </mxCell>
        <mxCell id="7" value="SQLite" style="image;html=1;image=img/lib/clip_art/computers/Database_128x128.png" parent="11" vertex="1">
          <mxGeometry x="134.5" y="10" width="60" height="60" as="geometry" />
        </mxCell>
        <mxCell id="lPjXOy1hwpFaWnZ9q_PB-39" value="Aplicação&lt;br&gt;Python" style="aspect=fixed;sketch=0;html=1;dashed=0;whitespace=wrap;verticalLabelPosition=bottom;verticalAlign=top;fillColor=#2875E2;strokeColor=#ffffff;points=[[0.005,0.63,0],[0.1,0.2,0],[0.9,0.2,0],[0.5,0,0],[0.995,0.63,0],[0.72,0.99,0],[0.5,1,0],[0.28,0.99,0]];shape=mxgraph.kubernetes.icon2;prIcon=api" parent="11" vertex="1">
          <mxGeometry x="140" y="122" width="50" height="48" as="geometry" />
        </mxCell>
        <mxCell id="23" style="edgeStyle=none;html=1;" parent="1" source="22" target="2" edge="1">
          <mxGeometry relative="1" as="geometry" />
        </mxCell>
        <mxCell id="22" value="user 2" style="verticalLabelPosition=bottom;shadow=0;dashed=0;align=center;html=1;verticalAlign=top;strokeWidth=1;shape=mxgraph.mockup.containers.userMale;strokeColor=#666666;strokeColor2=#008cff;" parent="1" vertex="1">
          <mxGeometry x="699" y="-13" width="50" height="50" as="geometry" />
        </mxCell>
        <mxCell id="25" style="edgeStyle=none;html=1;" parent="1" source="24" target="3" edge="1">
          <mxGeometry relative="1" as="geometry" />
        </mxCell>
        <mxCell id="24" value="user 1" style="verticalLabelPosition=bottom;shadow=0;dashed=0;align=center;html=1;verticalAlign=top;strokeWidth=1;shape=mxgraph.mockup.containers.userMale;strokeColor=#666666;strokeColor2=#008cff;" parent="1" vertex="1">
          <mxGeometry x="367" y="-9" width="50" height="50" as="geometry" />
        </mxCell>
        <mxCell id="26" value="Modbus Server" style="swimlane;startSize=0;labelPosition=center;verticalLabelPosition=bottom;align=center;verticalAlign=top;" parent="1" vertex="1">
          <mxGeometry x="668" y="243" width="204" height="215" as="geometry">
            <mxRectangle x="668" y="243" width="116" height="26" as="alternateBounds" />
          </mxGeometry>
        </mxCell>
        <mxCell id="20" value="" style="sketch=0;html=1;dashed=0;whitespace=wrap;fillColor=#2875E2;strokeColor=#ffffff;points=[[0.005,0.63,0],[0.1,0.2,0],[0.9,0.2,0],[0.5,0,0],[0.995,0.63,0],[0.72,0.99,0],[0.5,1,0],[0.28,0.99,0]];verticalLabelPosition=bottom;align=center;verticalAlign=top;shape=mxgraph.kubernetes.icon;prIcon=api" parent="26" vertex="1">
          <mxGeometry x="31" y="109" width="60" height="68" as="geometry" />
        </mxCell>
        <mxCell id="21" style="edgeStyle=none;html=1;dashed=1;entryX=0.005;entryY=0.63;entryDx=0;entryDy=0;entryPerimeter=0;" parent="26" source="20" target="lPjXOy1hwpFaWnZ9q_PB-41" edge="1">
          <mxGeometry relative="1" as="geometry">
            <mxPoint x="119" y="148.89304812834212" as="targetPoint" />
          </mxGeometry>
        </mxCell>
        <mxCell id="lPjXOy1hwpFaWnZ9q_PB-41" value="Aplicação&lt;br&gt;Python" style="aspect=fixed;sketch=0;html=1;dashed=0;whitespace=wrap;verticalLabelPosition=bottom;verticalAlign=top;fillColor=#2875E2;strokeColor=#ffffff;points=[[0.005,0.63,0],[0.1,0.2,0],[0.9,0.2,0],[0.5,0,0],[0.995,0.63,0],[0.72,0.99,0],[0.5,1,0],[0.28,0.99,0]];shape=mxgraph.kubernetes.icon2;prIcon=api" parent="26" vertex="1">
          <mxGeometry x="126" y="118" width="50" height="48" as="geometry" />
        </mxCell>
        <mxCell id="lPjXOy1hwpFaWnZ9q_PB-27" value="ScadaBR" style="swimlane;startSize=0;labelPosition=center;verticalLabelPosition=bottom;align=center;verticalAlign=top;" parent="1" vertex="1" collapsed="1">
          <mxGeometry x="877" y="-3" width="86" height="26" as="geometry">
            <mxRectangle x="877" y="-3" width="204" height="215" as="alternateBounds" />
          </mxGeometry>
        </mxCell>
        <mxCell id="lPjXOy1hwpFaWnZ9q_PB-28" value="" style="sketch=0;html=1;dashed=0;whitespace=wrap;fillColor=#2875E2;strokeColor=#ffffff;points=[[0.005,0.63,0],[0.1,0.2,0],[0.9,0.2,0],[0.5,0,0],[0.995,0.63,0],[0.72,0.99,0],[0.5,1,0],[0.28,0.99,0]];verticalLabelPosition=bottom;align=center;verticalAlign=top;shape=mxgraph.kubernetes.icon;prIcon=api" parent="lPjXOy1hwpFaWnZ9q_PB-27" vertex="1">
          <mxGeometry x="30" y="113" width="60" height="68" as="geometry" />
        </mxCell>
        <mxCell id="lPjXOy1hwpFaWnZ9q_PB-30" style="edgeStyle=none;html=1;dashed=1;entryX=0.005;entryY=0.63;entryDx=0;entryDy=0;entryPerimeter=0;" parent="lPjXOy1hwpFaWnZ9q_PB-27" source="lPjXOy1hwpFaWnZ9q_PB-28" target="lPjXOy1hwpFaWnZ9q_PB-42" edge="1">
          <mxGeometry relative="1" as="geometry">
            <mxPoint x="119" y="148.89304812834223" as="targetPoint" />
          </mxGeometry>
        </mxCell>
        <mxCell id="lPjXOy1hwpFaWnZ9q_PB-42" value="Aplicação&lt;br&gt;Java" style="aspect=fixed;sketch=0;html=1;dashed=0;whitespace=wrap;verticalLabelPosition=bottom;verticalAlign=top;fillColor=#2875E2;strokeColor=#ffffff;points=[[0.005,0.63,0],[0.1,0.2,0],[0.9,0.2,0],[0.5,0,0],[0.995,0.63,0],[0.72,0.99,0],[0.5,1,0],[0.28,0.99,0]];shape=mxgraph.kubernetes.icon2;prIcon=api" parent="lPjXOy1hwpFaWnZ9q_PB-27" vertex="1">
          <mxGeometry x="127" y="118" width="50" height="48" as="geometry" />
        </mxCell>
        <mxCell id="lPjXOy1hwpFaWnZ9q_PB-43" style="edgeStyle=none;html=1;dashed=1;exitX=0.5;exitY=0;exitDx=0;exitDy=0;exitPerimeter=0;" parent="lPjXOy1hwpFaWnZ9q_PB-27" source="lPjXOy1hwpFaWnZ9q_PB-42" target="lPjXOy1hwpFaWnZ9q_PB-36" edge="1">
          <mxGeometry relative="1" as="geometry">
            <mxPoint x="114" y="346" as="sourcePoint" />
            <mxPoint x="114" y="294" as="targetPoint" />
          </mxGeometry>
        </mxCell>
        <mxCell id="lPjXOy1hwpFaWnZ9q_PB-36" value="ApacheDB" style="image;html=1;image=img/lib/clip_art/computers/Database_128x128.png;imageBackground=none;imageBorder=none;labelBorderColor=none;labelBackgroundColor=light-dark(#fffafa, #e3e3e3);textShadow=0;fontColor=default;" parent="lPjXOy1hwpFaWnZ9q_PB-27" vertex="1">
          <mxGeometry x="124" y="13" width="60" height="59" as="geometry" />
        </mxCell>
        <mxCell id="lPjXOy1hwpFaWnZ9q_PB-31" value="" style="shape=curlyBracket;whiteSpace=wrap;html=1;rounded=1;labelPosition=left;verticalLabelPosition=middle;align=right;verticalAlign=middle;" parent="1" vertex="1">
          <mxGeometry x="807" y="1" width="20" height="209" as="geometry" />
        </mxCell>
      </root>
    </mxGraphModel>
  </diagram>
  <diagram name="entidades" id="rdsZX1qdptkRJ-AGL9s0">
    <mxGraphModel dx="1678" dy="783" grid="0" gridSize="10" guides="0" tooltips="1" connect="1" arrows="1" fold="1" page="0" pageScale="1" pageWidth="850" pageHeight="1100" math="0" shadow="0">
      <root>
        <mxCell id="azmtdkim4qkQnn_I24UE-0" />
        <mxCell id="azmtdkim4qkQnn_I24UE-1" parent="azmtdkim4qkQnn_I24UE-0" />
        <mxCell id="Wwe8WMdHl_TM_MLQPk-Z-4" value="DATASOURCES" style="shape=table;startSize=25;container=1;collapsible=0;childLayout=tableLayout;fixedRows=1;rowLines=1;fontStyle=1;align=center;resizeLast=1;" vertex="1" parent="azmtdkim4qkQnn_I24UE-1">
          <mxGeometry x="232" y="140" width="133" height="157" as="geometry" />
        </mxCell>
        <mxCell id="Wwe8WMdHl_TM_MLQPk-Z-5" style="shape=tableRow;horizontal=0;startSize=0;swimlaneHead=0;swimlaneBody=0;fillColor=none;collapsible=0;dropTarget=0;points=[[0,0.5],[1,0.5]];portConstraint=eastwest;top=0;left=0;right=0;bottom=0;" vertex="1" parent="Wwe8WMdHl_TM_MLQPk-Z-4">
          <mxGeometry y="25" width="133" height="22" as="geometry" />
        </mxCell>
        <mxCell id="Wwe8WMdHl_TM_MLQPk-Z-6" value="int" style="shape=partialRectangle;connectable=0;fillColor=none;top=0;left=0;bottom=0;right=0;align=left;spacingLeft=2;overflow=hidden;fontSize=11;" vertex="1" parent="Wwe8WMdHl_TM_MLQPk-Z-5">
          <mxGeometry width="48" height="22" as="geometry">
            <mxRectangle width="48" height="22" as="alternateBounds" />
          </mxGeometry>
        </mxCell>
        <mxCell id="Wwe8WMdHl_TM_MLQPk-Z-7" value="id" style="shape=partialRectangle;connectable=0;fillColor=none;top=0;left=0;bottom=0;right=0;align=left;spacingLeft=2;overflow=hidden;fontSize=11;" vertex="1" parent="Wwe8WMdHl_TM_MLQPk-Z-5">
          <mxGeometry x="48" width="63" height="22" as="geometry">
            <mxRectangle width="63" height="22" as="alternateBounds" />
          </mxGeometry>
        </mxCell>
        <mxCell id="Wwe8WMdHl_TM_MLQPk-Z-8" value="PK" style="shape=partialRectangle;connectable=0;fillColor=none;top=0;left=0;bottom=0;right=0;align=left;spacingLeft=2;overflow=hidden;fontSize=11;" vertex="1" parent="Wwe8WMdHl_TM_MLQPk-Z-5">
          <mxGeometry x="111" width="22" height="22" as="geometry">
            <mxRectangle width="22" height="22" as="alternateBounds" />
          </mxGeometry>
        </mxCell>
        <mxCell id="Wwe8WMdHl_TM_MLQPk-Z-9" style="shape=tableRow;horizontal=0;startSize=0;swimlaneHead=0;swimlaneBody=0;fillColor=none;collapsible=0;dropTarget=0;points=[[0,0.5],[1,0.5]];portConstraint=eastwest;top=0;left=0;right=0;bottom=0;" vertex="1" parent="Wwe8WMdHl_TM_MLQPk-Z-4">
          <mxGeometry y="47" width="133" height="22" as="geometry" />
        </mxCell>
        <mxCell id="Wwe8WMdHl_TM_MLQPk-Z-10" value="string" style="shape=partialRectangle;connectable=0;fillColor=none;top=0;left=0;bottom=0;right=0;align=left;spacingLeft=2;overflow=hidden;fontSize=11;" vertex="1" parent="Wwe8WMdHl_TM_MLQPk-Z-9">
          <mxGeometry width="48" height="22" as="geometry">
            <mxRectangle width="48" height="22" as="alternateBounds" />
          </mxGeometry>
        </mxCell>
        <mxCell id="Wwe8WMdHl_TM_MLQPk-Z-11" value="nome" style="shape=partialRectangle;connectable=0;fillColor=none;top=0;left=0;bottom=0;right=0;align=left;spacingLeft=2;overflow=hidden;fontSize=11;" vertex="1" parent="Wwe8WMdHl_TM_MLQPk-Z-9">
          <mxGeometry x="48" width="63" height="22" as="geometry">
            <mxRectangle width="63" height="22" as="alternateBounds" />
          </mxGeometry>
        </mxCell>
        <mxCell id="Wwe8WMdHl_TM_MLQPk-Z-12" value="" style="shape=partialRectangle;connectable=0;fillColor=none;top=0;left=0;bottom=0;right=0;align=left;spacingLeft=2;overflow=hidden;fontSize=11;" vertex="1" parent="Wwe8WMdHl_TM_MLQPk-Z-9">
          <mxGeometry x="111" width="22" height="22" as="geometry">
            <mxRectangle width="22" height="22" as="alternateBounds" />
          </mxGeometry>
        </mxCell>
        <mxCell id="Wwe8WMdHl_TM_MLQPk-Z-13" style="shape=tableRow;horizontal=0;startSize=0;swimlaneHead=0;swimlaneBody=0;fillColor=none;collapsible=0;dropTarget=0;points=[[0,0.5],[1,0.5]];portConstraint=eastwest;top=0;left=0;right=0;bottom=0;" vertex="1" parent="Wwe8WMdHl_TM_MLQPk-Z-4">
          <mxGeometry y="69" width="133" height="22" as="geometry" />
        </mxCell>
        <mxCell id="Wwe8WMdHl_TM_MLQPk-Z-14" value="string" style="shape=partialRectangle;connectable=0;fillColor=none;top=0;left=0;bottom=0;right=0;align=left;spacingLeft=2;overflow=hidden;fontSize=11;" vertex="1" parent="Wwe8WMdHl_TM_MLQPk-Z-13">
          <mxGeometry width="48" height="22" as="geometry">
            <mxRectangle width="48" height="22" as="alternateBounds" />
          </mxGeometry>
        </mxCell>
        <mxCell id="Wwe8WMdHl_TM_MLQPk-Z-15" value="tipo" style="shape=partialRectangle;connectable=0;fillColor=none;top=0;left=0;bottom=0;right=0;align=left;spacingLeft=2;overflow=hidden;fontSize=11;" vertex="1" parent="Wwe8WMdHl_TM_MLQPk-Z-13">
          <mxGeometry x="48" width="63" height="22" as="geometry">
            <mxRectangle width="63" height="22" as="alternateBounds" />
          </mxGeometry>
        </mxCell>
        <mxCell id="Wwe8WMdHl_TM_MLQPk-Z-16" value="" style="shape=partialRectangle;connectable=0;fillColor=none;top=0;left=0;bottom=0;right=0;align=left;spacingLeft=2;overflow=hidden;fontSize=11;" vertex="1" parent="Wwe8WMdHl_TM_MLQPk-Z-13">
          <mxGeometry x="111" width="22" height="22" as="geometry">
            <mxRectangle width="22" height="22" as="alternateBounds" />
          </mxGeometry>
        </mxCell>
        <mxCell id="Wwe8WMdHl_TM_MLQPk-Z-17" style="shape=tableRow;horizontal=0;startSize=0;swimlaneHead=0;swimlaneBody=0;fillColor=none;collapsible=0;dropTarget=0;points=[[0,0.5],[1,0.5]];portConstraint=eastwest;top=0;left=0;right=0;bottom=0;" vertex="1" parent="Wwe8WMdHl_TM_MLQPk-Z-4">
          <mxGeometry y="91" width="133" height="22" as="geometry" />
        </mxCell>
        <mxCell id="Wwe8WMdHl_TM_MLQPk-Z-18" value="string" style="shape=partialRectangle;connectable=0;fillColor=none;top=0;left=0;bottom=0;right=0;align=left;spacingLeft=2;overflow=hidden;fontSize=11;" vertex="1" parent="Wwe8WMdHl_TM_MLQPk-Z-17">
          <mxGeometry width="48" height="22" as="geometry">
            <mxRectangle width="48" height="22" as="alternateBounds" />
          </mxGeometry>
        </mxCell>
        <mxCell id="Wwe8WMdHl_TM_MLQPk-Z-19" value="host" style="shape=partialRectangle;connectable=0;fillColor=none;top=0;left=0;bottom=0;right=0;align=left;spacingLeft=2;overflow=hidden;fontSize=11;" vertex="1" parent="Wwe8WMdHl_TM_MLQPk-Z-17">
          <mxGeometry x="48" width="63" height="22" as="geometry">
            <mxRectangle width="63" height="22" as="alternateBounds" />
          </mxGeometry>
        </mxCell>
        <mxCell id="Wwe8WMdHl_TM_MLQPk-Z-20" value="" style="shape=partialRectangle;connectable=0;fillColor=none;top=0;left=0;bottom=0;right=0;align=left;spacingLeft=2;overflow=hidden;fontSize=11;" vertex="1" parent="Wwe8WMdHl_TM_MLQPk-Z-17">
          <mxGeometry x="111" width="22" height="22" as="geometry">
            <mxRectangle width="22" height="22" as="alternateBounds" />
          </mxGeometry>
        </mxCell>
        <mxCell id="Wwe8WMdHl_TM_MLQPk-Z-21" style="shape=tableRow;horizontal=0;startSize=0;swimlaneHead=0;swimlaneBody=0;fillColor=none;collapsible=0;dropTarget=0;points=[[0,0.5],[1,0.5]];portConstraint=eastwest;top=0;left=0;right=0;bottom=0;" vertex="1" parent="Wwe8WMdHl_TM_MLQPk-Z-4">
          <mxGeometry y="113" width="133" height="22" as="geometry" />
        </mxCell>
        <mxCell id="Wwe8WMdHl_TM_MLQPk-Z-22" value="int" style="shape=partialRectangle;connectable=0;fillColor=none;top=0;left=0;bottom=0;right=0;align=left;spacingLeft=2;overflow=hidden;fontSize=11;" vertex="1" parent="Wwe8WMdHl_TM_MLQPk-Z-21">
          <mxGeometry width="48" height="22" as="geometry">
            <mxRectangle width="48" height="22" as="alternateBounds" />
          </mxGeometry>
        </mxCell>
        <mxCell id="Wwe8WMdHl_TM_MLQPk-Z-23" value="porta" style="shape=partialRectangle;connectable=0;fillColor=none;top=0;left=0;bottom=0;right=0;align=left;spacingLeft=2;overflow=hidden;fontSize=11;" vertex="1" parent="Wwe8WMdHl_TM_MLQPk-Z-21">
          <mxGeometry x="48" width="63" height="22" as="geometry">
            <mxRectangle width="63" height="22" as="alternateBounds" />
          </mxGeometry>
        </mxCell>
        <mxCell id="Wwe8WMdHl_TM_MLQPk-Z-24" value="" style="shape=partialRectangle;connectable=0;fillColor=none;top=0;left=0;bottom=0;right=0;align=left;spacingLeft=2;overflow=hidden;fontSize=11;" vertex="1" parent="Wwe8WMdHl_TM_MLQPk-Z-21">
          <mxGeometry x="111" width="22" height="22" as="geometry">
            <mxRectangle width="22" height="22" as="alternateBounds" />
          </mxGeometry>
        </mxCell>
        <mxCell id="Wwe8WMdHl_TM_MLQPk-Z-25" style="shape=tableRow;horizontal=0;startSize=0;swimlaneHead=0;swimlaneBody=0;fillColor=none;collapsible=0;dropTarget=0;points=[[0,0.5],[1,0.5]];portConstraint=eastwest;top=0;left=0;right=0;bottom=0;" vertex="1" parent="Wwe8WMdHl_TM_MLQPk-Z-4">
          <mxGeometry y="135" width="133" height="22" as="geometry" />
        </mxCell>
        <mxCell id="Wwe8WMdHl_TM_MLQPk-Z-26" value="datetime" style="shape=partialRectangle;connectable=0;fillColor=none;top=0;left=0;bottom=0;right=0;align=left;spacingLeft=2;overflow=hidden;fontSize=11;" vertex="1" parent="Wwe8WMdHl_TM_MLQPk-Z-25">
          <mxGeometry width="48" height="22" as="geometry">
            <mxRectangle width="48" height="22" as="alternateBounds" />
          </mxGeometry>
        </mxCell>
        <mxCell id="Wwe8WMdHl_TM_MLQPk-Z-27" value="criado_em" style="shape=partialRectangle;connectable=0;fillColor=none;top=0;left=0;bottom=0;right=0;align=left;spacingLeft=2;overflow=hidden;fontSize=11;" vertex="1" parent="Wwe8WMdHl_TM_MLQPk-Z-25">
          <mxGeometry x="48" width="63" height="22" as="geometry">
            <mxRectangle width="63" height="22" as="alternateBounds" />
          </mxGeometry>
        </mxCell>
        <mxCell id="Wwe8WMdHl_TM_MLQPk-Z-28" value="" style="shape=partialRectangle;connectable=0;fillColor=none;top=0;left=0;bottom=0;right=0;align=left;spacingLeft=2;overflow=hidden;fontSize=11;" vertex="1" parent="Wwe8WMdHl_TM_MLQPk-Z-25">
          <mxGeometry x="111" width="22" height="22" as="geometry">
            <mxRectangle width="22" height="22" as="alternateBounds" />
          </mxGeometry>
        </mxCell>
        <mxCell id="Wwe8WMdHl_TM_MLQPk-Z-29" value="DATAPOINTS" style="shape=table;startSize=25;container=1;collapsible=0;childLayout=tableLayout;fixedRows=1;rowLines=1;fontStyle=1;align=center;resizeLast=1;" vertex="1" parent="azmtdkim4qkQnn_I24UE-1">
          <mxGeometry x="487" y="142" width="149" height="157" as="geometry" />
        </mxCell>
        <mxCell id="Wwe8WMdHl_TM_MLQPk-Z-30" style="shape=tableRow;horizontal=0;startSize=0;swimlaneHead=0;swimlaneBody=0;fillColor=none;collapsible=0;dropTarget=0;points=[[0,0.5],[1,0.5]];portConstraint=eastwest;top=0;left=0;right=0;bottom=0;" vertex="1" parent="Wwe8WMdHl_TM_MLQPk-Z-29">
          <mxGeometry y="25" width="149" height="22" as="geometry" />
        </mxCell>
        <mxCell id="Wwe8WMdHl_TM_MLQPk-Z-31" value="int" style="shape=partialRectangle;connectable=0;fillColor=none;top=0;left=0;bottom=0;right=0;align=left;spacingLeft=2;overflow=hidden;fontSize=11;" vertex="1" parent="Wwe8WMdHl_TM_MLQPk-Z-30">
          <mxGeometry width="48" height="22" as="geometry">
            <mxRectangle width="48" height="22" as="alternateBounds" />
          </mxGeometry>
        </mxCell>
        <mxCell id="Wwe8WMdHl_TM_MLQPk-Z-32" value="id" style="shape=partialRectangle;connectable=0;fillColor=none;top=0;left=0;bottom=0;right=0;align=left;spacingLeft=2;overflow=hidden;fontSize=11;" vertex="1" parent="Wwe8WMdHl_TM_MLQPk-Z-30">
          <mxGeometry x="48" width="79" height="22" as="geometry">
            <mxRectangle width="79" height="22" as="alternateBounds" />
          </mxGeometry>
        </mxCell>
        <mxCell id="Wwe8WMdHl_TM_MLQPk-Z-33" value="PK" style="shape=partialRectangle;connectable=0;fillColor=none;top=0;left=0;bottom=0;right=0;align=left;spacingLeft=2;overflow=hidden;fontSize=11;" vertex="1" parent="Wwe8WMdHl_TM_MLQPk-Z-30">
          <mxGeometry x="127" width="22" height="22" as="geometry">
            <mxRectangle width="22" height="22" as="alternateBounds" />
          </mxGeometry>
        </mxCell>
        <mxCell id="Wwe8WMdHl_TM_MLQPk-Z-34" style="shape=tableRow;horizontal=0;startSize=0;swimlaneHead=0;swimlaneBody=0;fillColor=none;collapsible=0;dropTarget=0;points=[[0,0.5],[1,0.5]];portConstraint=eastwest;top=0;left=0;right=0;bottom=0;" vertex="1" parent="Wwe8WMdHl_TM_MLQPk-Z-29">
          <mxGeometry y="47" width="149" height="22" as="geometry" />
        </mxCell>
        <mxCell id="Wwe8WMdHl_TM_MLQPk-Z-35" value="int" style="shape=partialRectangle;connectable=0;fillColor=none;top=0;left=0;bottom=0;right=0;align=left;spacingLeft=2;overflow=hidden;fontSize=11;" vertex="1" parent="Wwe8WMdHl_TM_MLQPk-Z-34">
          <mxGeometry width="48" height="22" as="geometry">
            <mxRectangle width="48" height="22" as="alternateBounds" />
          </mxGeometry>
        </mxCell>
        <mxCell id="Wwe8WMdHl_TM_MLQPk-Z-36" value="datasource_id" style="shape=partialRectangle;connectable=0;fillColor=none;top=0;left=0;bottom=0;right=0;align=left;spacingLeft=2;overflow=hidden;fontSize=11;" vertex="1" parent="Wwe8WMdHl_TM_MLQPk-Z-34">
          <mxGeometry x="48" width="79" height="22" as="geometry">
            <mxRectangle width="79" height="22" as="alternateBounds" />
          </mxGeometry>
        </mxCell>
        <mxCell id="Wwe8WMdHl_TM_MLQPk-Z-37" value="FK" style="shape=partialRectangle;connectable=0;fillColor=none;top=0;left=0;bottom=0;right=0;align=left;spacingLeft=2;overflow=hidden;fontSize=11;" vertex="1" parent="Wwe8WMdHl_TM_MLQPk-Z-34">
          <mxGeometry x="127" width="22" height="22" as="geometry">
            <mxRectangle width="22" height="22" as="alternateBounds" />
          </mxGeometry>
        </mxCell>
        <mxCell id="Wwe8WMdHl_TM_MLQPk-Z-38" style="shape=tableRow;horizontal=0;startSize=0;swimlaneHead=0;swimlaneBody=0;fillColor=none;collapsible=0;dropTarget=0;points=[[0,0.5],[1,0.5]];portConstraint=eastwest;top=0;left=0;right=0;bottom=0;" vertex="1" parent="Wwe8WMdHl_TM_MLQPk-Z-29">
          <mxGeometry y="69" width="149" height="22" as="geometry" />
        </mxCell>
        <mxCell id="Wwe8WMdHl_TM_MLQPk-Z-39" value="string" style="shape=partialRectangle;connectable=0;fillColor=none;top=0;left=0;bottom=0;right=0;align=left;spacingLeft=2;overflow=hidden;fontSize=11;" vertex="1" parent="Wwe8WMdHl_TM_MLQPk-Z-38">
          <mxGeometry width="48" height="22" as="geometry">
            <mxRectangle width="48" height="22" as="alternateBounds" />
          </mxGeometry>
        </mxCell>
        <mxCell id="Wwe8WMdHl_TM_MLQPk-Z-40" value="nome" style="shape=partialRectangle;connectable=0;fillColor=none;top=0;left=0;bottom=0;right=0;align=left;spacingLeft=2;overflow=hidden;fontSize=11;" vertex="1" parent="Wwe8WMdHl_TM_MLQPk-Z-38">
          <mxGeometry x="48" width="79" height="22" as="geometry">
            <mxRectangle width="79" height="22" as="alternateBounds" />
          </mxGeometry>
        </mxCell>
        <mxCell id="Wwe8WMdHl_TM_MLQPk-Z-41" value="" style="shape=partialRectangle;connectable=0;fillColor=none;top=0;left=0;bottom=0;right=0;align=left;spacingLeft=2;overflow=hidden;fontSize=11;" vertex="1" parent="Wwe8WMdHl_TM_MLQPk-Z-38">
          <mxGeometry x="127" width="22" height="22" as="geometry">
            <mxRectangle width="22" height="22" as="alternateBounds" />
          </mxGeometry>
        </mxCell>
        <mxCell id="Wwe8WMdHl_TM_MLQPk-Z-42" style="shape=tableRow;horizontal=0;startSize=0;swimlaneHead=0;swimlaneBody=0;fillColor=none;collapsible=0;dropTarget=0;points=[[0,0.5],[1,0.5]];portConstraint=eastwest;top=0;left=0;right=0;bottom=0;" vertex="1" parent="Wwe8WMdHl_TM_MLQPk-Z-29">
          <mxGeometry y="91" width="149" height="22" as="geometry" />
        </mxCell>
        <mxCell id="Wwe8WMdHl_TM_MLQPk-Z-43" value="int" style="shape=partialRectangle;connectable=0;fillColor=none;top=0;left=0;bottom=0;right=0;align=left;spacingLeft=2;overflow=hidden;fontSize=11;" vertex="1" parent="Wwe8WMdHl_TM_MLQPk-Z-42">
          <mxGeometry width="48" height="22" as="geometry">
            <mxRectangle width="48" height="22" as="alternateBounds" />
          </mxGeometry>
        </mxCell>
        <mxCell id="Wwe8WMdHl_TM_MLQPk-Z-44" value="endereco" style="shape=partialRectangle;connectable=0;fillColor=none;top=0;left=0;bottom=0;right=0;align=left;spacingLeft=2;overflow=hidden;fontSize=11;" vertex="1" parent="Wwe8WMdHl_TM_MLQPk-Z-42">
          <mxGeometry x="48" width="79" height="22" as="geometry">
            <mxRectangle width="79" height="22" as="alternateBounds" />
          </mxGeometry>
        </mxCell>
        <mxCell id="Wwe8WMdHl_TM_MLQPk-Z-45" value="" style="shape=partialRectangle;connectable=0;fillColor=none;top=0;left=0;bottom=0;right=0;align=left;spacingLeft=2;overflow=hidden;fontSize=11;" vertex="1" parent="Wwe8WMdHl_TM_MLQPk-Z-42">
          <mxGeometry x="127" width="22" height="22" as="geometry">
            <mxRectangle width="22" height="22" as="alternateBounds" />
          </mxGeometry>
        </mxCell>
        <mxCell id="Wwe8WMdHl_TM_MLQPk-Z-46" style="shape=tableRow;horizontal=0;startSize=0;swimlaneHead=0;swimlaneBody=0;fillColor=none;collapsible=0;dropTarget=0;points=[[0,0.5],[1,0.5]];portConstraint=eastwest;top=0;left=0;right=0;bottom=0;" vertex="1" parent="Wwe8WMdHl_TM_MLQPk-Z-29">
          <mxGeometry y="113" width="149" height="22" as="geometry" />
        </mxCell>
        <mxCell id="Wwe8WMdHl_TM_MLQPk-Z-47" value="string" style="shape=partialRectangle;connectable=0;fillColor=none;top=0;left=0;bottom=0;right=0;align=left;spacingLeft=2;overflow=hidden;fontSize=11;" vertex="1" parent="Wwe8WMdHl_TM_MLQPk-Z-46">
          <mxGeometry width="48" height="22" as="geometry">
            <mxRectangle width="48" height="22" as="alternateBounds" />
          </mxGeometry>
        </mxCell>
        <mxCell id="Wwe8WMdHl_TM_MLQPk-Z-48" value="unidade" style="shape=partialRectangle;connectable=0;fillColor=none;top=0;left=0;bottom=0;right=0;align=left;spacingLeft=2;overflow=hidden;fontSize=11;" vertex="1" parent="Wwe8WMdHl_TM_MLQPk-Z-46">
          <mxGeometry x="48" width="79" height="22" as="geometry">
            <mxRectangle width="79" height="22" as="alternateBounds" />
          </mxGeometry>
        </mxCell>
        <mxCell id="Wwe8WMdHl_TM_MLQPk-Z-49" value="" style="shape=partialRectangle;connectable=0;fillColor=none;top=0;left=0;bottom=0;right=0;align=left;spacingLeft=2;overflow=hidden;fontSize=11;" vertex="1" parent="Wwe8WMdHl_TM_MLQPk-Z-46">
          <mxGeometry x="127" width="22" height="22" as="geometry">
            <mxRectangle width="22" height="22" as="alternateBounds" />
          </mxGeometry>
        </mxCell>
        <mxCell id="Wwe8WMdHl_TM_MLQPk-Z-50" style="shape=tableRow;horizontal=0;startSize=0;swimlaneHead=0;swimlaneBody=0;fillColor=none;collapsible=0;dropTarget=0;points=[[0,0.5],[1,0.5]];portConstraint=eastwest;top=0;left=0;right=0;bottom=0;" vertex="1" parent="Wwe8WMdHl_TM_MLQPk-Z-29">
          <mxGeometry y="135" width="149" height="22" as="geometry" />
        </mxCell>
        <mxCell id="Wwe8WMdHl_TM_MLQPk-Z-51" value="datetime" style="shape=partialRectangle;connectable=0;fillColor=none;top=0;left=0;bottom=0;right=0;align=left;spacingLeft=2;overflow=hidden;fontSize=11;" vertex="1" parent="Wwe8WMdHl_TM_MLQPk-Z-50">
          <mxGeometry width="48" height="22" as="geometry">
            <mxRectangle width="48" height="22" as="alternateBounds" />
          </mxGeometry>
        </mxCell>
        <mxCell id="Wwe8WMdHl_TM_MLQPk-Z-52" value="criado_em" style="shape=partialRectangle;connectable=0;fillColor=none;top=0;left=0;bottom=0;right=0;align=left;spacingLeft=2;overflow=hidden;fontSize=11;" vertex="1" parent="Wwe8WMdHl_TM_MLQPk-Z-50">
          <mxGeometry x="48" width="79" height="22" as="geometry">
            <mxRectangle width="79" height="22" as="alternateBounds" />
          </mxGeometry>
        </mxCell>
        <mxCell id="Wwe8WMdHl_TM_MLQPk-Z-53" value="" style="shape=partialRectangle;connectable=0;fillColor=none;top=0;left=0;bottom=0;right=0;align=left;spacingLeft=2;overflow=hidden;fontSize=11;" vertex="1" parent="Wwe8WMdHl_TM_MLQPk-Z-50">
          <mxGeometry x="127" width="22" height="22" as="geometry">
            <mxRectangle width="22" height="22" as="alternateBounds" />
          </mxGeometry>
        </mxCell>
        <mxCell id="Wwe8WMdHl_TM_MLQPk-Z-54" value="REGISTROS" style="shape=table;startSize=25;container=1;collapsible=0;childLayout=tableLayout;fixedRows=1;rowLines=1;fontStyle=1;align=center;resizeLast=1;" vertex="1" parent="azmtdkim4qkQnn_I24UE-1">
          <mxGeometry x="752" y="166" width="143" height="113" as="geometry" />
        </mxCell>
        <mxCell id="Wwe8WMdHl_TM_MLQPk-Z-55" style="shape=tableRow;horizontal=0;startSize=0;swimlaneHead=0;swimlaneBody=0;fillColor=none;collapsible=0;dropTarget=0;points=[[0,0.5],[1,0.5]];portConstraint=eastwest;top=0;left=0;right=0;bottom=0;" vertex="1" parent="Wwe8WMdHl_TM_MLQPk-Z-54">
          <mxGeometry y="25" width="143" height="22" as="geometry" />
        </mxCell>
        <mxCell id="Wwe8WMdHl_TM_MLQPk-Z-56" value="int" style="shape=partialRectangle;connectable=0;fillColor=none;top=0;left=0;bottom=0;right=0;align=left;spacingLeft=2;overflow=hidden;fontSize=11;" vertex="1" parent="Wwe8WMdHl_TM_MLQPk-Z-55">
          <mxGeometry width="48" height="22" as="geometry">
            <mxRectangle width="48" height="22" as="alternateBounds" />
          </mxGeometry>
        </mxCell>
        <mxCell id="Wwe8WMdHl_TM_MLQPk-Z-57" value="id" style="shape=partialRectangle;connectable=0;fillColor=none;top=0;left=0;bottom=0;right=0;align=left;spacingLeft=2;overflow=hidden;fontSize=11;" vertex="1" parent="Wwe8WMdHl_TM_MLQPk-Z-55">
          <mxGeometry x="48" width="73" height="22" as="geometry">
            <mxRectangle width="73" height="22" as="alternateBounds" />
          </mxGeometry>
        </mxCell>
        <mxCell id="Wwe8WMdHl_TM_MLQPk-Z-58" value="PK" style="shape=partialRectangle;connectable=0;fillColor=none;top=0;left=0;bottom=0;right=0;align=left;spacingLeft=2;overflow=hidden;fontSize=11;" vertex="1" parent="Wwe8WMdHl_TM_MLQPk-Z-55">
          <mxGeometry x="121" width="22" height="22" as="geometry">
            <mxRectangle width="22" height="22" as="alternateBounds" />
          </mxGeometry>
        </mxCell>
        <mxCell id="Wwe8WMdHl_TM_MLQPk-Z-59" style="shape=tableRow;horizontal=0;startSize=0;swimlaneHead=0;swimlaneBody=0;fillColor=none;collapsible=0;dropTarget=0;points=[[0,0.5],[1,0.5]];portConstraint=eastwest;top=0;left=0;right=0;bottom=0;" vertex="1" parent="Wwe8WMdHl_TM_MLQPk-Z-54">
          <mxGeometry y="47" width="143" height="22" as="geometry" />
        </mxCell>
        <mxCell id="Wwe8WMdHl_TM_MLQPk-Z-60" value="int" style="shape=partialRectangle;connectable=0;fillColor=none;top=0;left=0;bottom=0;right=0;align=left;spacingLeft=2;overflow=hidden;fontSize=11;" vertex="1" parent="Wwe8WMdHl_TM_MLQPk-Z-59">
          <mxGeometry width="48" height="22" as="geometry">
            <mxRectangle width="48" height="22" as="alternateBounds" />
          </mxGeometry>
        </mxCell>
        <mxCell id="Wwe8WMdHl_TM_MLQPk-Z-61" value="datapoint_id" style="shape=partialRectangle;connectable=0;fillColor=none;top=0;left=0;bottom=0;right=0;align=left;spacingLeft=2;overflow=hidden;fontSize=11;" vertex="1" parent="Wwe8WMdHl_TM_MLQPk-Z-59">
          <mxGeometry x="48" width="73" height="22" as="geometry">
            <mxRectangle width="73" height="22" as="alternateBounds" />
          </mxGeometry>
        </mxCell>
        <mxCell id="Wwe8WMdHl_TM_MLQPk-Z-62" value="FK" style="shape=partialRectangle;connectable=0;fillColor=none;top=0;left=0;bottom=0;right=0;align=left;spacingLeft=2;overflow=hidden;fontSize=11;" vertex="1" parent="Wwe8WMdHl_TM_MLQPk-Z-59">
          <mxGeometry x="121" width="22" height="22" as="geometry">
            <mxRectangle width="22" height="22" as="alternateBounds" />
          </mxGeometry>
        </mxCell>
        <mxCell id="Wwe8WMdHl_TM_MLQPk-Z-63" style="shape=tableRow;horizontal=0;startSize=0;swimlaneHead=0;swimlaneBody=0;fillColor=none;collapsible=0;dropTarget=0;points=[[0,0.5],[1,0.5]];portConstraint=eastwest;top=0;left=0;right=0;bottom=0;" vertex="1" parent="Wwe8WMdHl_TM_MLQPk-Z-54">
          <mxGeometry y="69" width="143" height="22" as="geometry" />
        </mxCell>
        <mxCell id="Wwe8WMdHl_TM_MLQPk-Z-64" value="float" style="shape=partialRectangle;connectable=0;fillColor=none;top=0;left=0;bottom=0;right=0;align=left;spacingLeft=2;overflow=hidden;fontSize=11;" vertex="1" parent="Wwe8WMdHl_TM_MLQPk-Z-63">
          <mxGeometry width="48" height="22" as="geometry">
            <mxRectangle width="48" height="22" as="alternateBounds" />
          </mxGeometry>
        </mxCell>
        <mxCell id="Wwe8WMdHl_TM_MLQPk-Z-65" value="valor" style="shape=partialRectangle;connectable=0;fillColor=none;top=0;left=0;bottom=0;right=0;align=left;spacingLeft=2;overflow=hidden;fontSize=11;" vertex="1" parent="Wwe8WMdHl_TM_MLQPk-Z-63">
          <mxGeometry x="48" width="73" height="22" as="geometry">
            <mxRectangle width="73" height="22" as="alternateBounds" />
          </mxGeometry>
        </mxCell>
        <mxCell id="Wwe8WMdHl_TM_MLQPk-Z-66" value="" style="shape=partialRectangle;connectable=0;fillColor=none;top=0;left=0;bottom=0;right=0;align=left;spacingLeft=2;overflow=hidden;fontSize=11;" vertex="1" parent="Wwe8WMdHl_TM_MLQPk-Z-63">
          <mxGeometry x="121" width="22" height="22" as="geometry">
            <mxRectangle width="22" height="22" as="alternateBounds" />
          </mxGeometry>
        </mxCell>
        <mxCell id="Wwe8WMdHl_TM_MLQPk-Z-67" style="shape=tableRow;horizontal=0;startSize=0;swimlaneHead=0;swimlaneBody=0;fillColor=none;collapsible=0;dropTarget=0;points=[[0,0.5],[1,0.5]];portConstraint=eastwest;top=0;left=0;right=0;bottom=0;" vertex="1" parent="Wwe8WMdHl_TM_MLQPk-Z-54">
          <mxGeometry y="91" width="143" height="22" as="geometry" />
        </mxCell>
        <mxCell id="Wwe8WMdHl_TM_MLQPk-Z-68" value="datetime" style="shape=partialRectangle;connectable=0;fillColor=none;top=0;left=0;bottom=0;right=0;align=left;spacingLeft=2;overflow=hidden;fontSize=11;" vertex="1" parent="Wwe8WMdHl_TM_MLQPk-Z-67">
          <mxGeometry width="48" height="22" as="geometry">
            <mxRectangle width="48" height="22" as="alternateBounds" />
          </mxGeometry>
        </mxCell>
        <mxCell id="Wwe8WMdHl_TM_MLQPk-Z-69" value="timestamp" style="shape=partialRectangle;connectable=0;fillColor=none;top=0;left=0;bottom=0;right=0;align=left;spacingLeft=2;overflow=hidden;fontSize=11;" vertex="1" parent="Wwe8WMdHl_TM_MLQPk-Z-67">
          <mxGeometry x="48" width="73" height="22" as="geometry">
            <mxRectangle width="73" height="22" as="alternateBounds" />
          </mxGeometry>
        </mxCell>
        <mxCell id="Wwe8WMdHl_TM_MLQPk-Z-70" value="" style="shape=partialRectangle;connectable=0;fillColor=none;top=0;left=0;bottom=0;right=0;align=left;spacingLeft=2;overflow=hidden;fontSize=11;" vertex="1" parent="Wwe8WMdHl_TM_MLQPk-Z-67">
          <mxGeometry x="121" width="22" height="22" as="geometry">
            <mxRectangle width="22" height="22" as="alternateBounds" />
          </mxGeometry>
        </mxCell>
        <mxCell id="Wwe8WMdHl_TM_MLQPk-Z-71" value="possui" style="startArrow=ERmandOne;startSize=10;;endArrow=ERzeroToMany;endSize=10;;rounded=0;" edge="1" parent="azmtdkim4qkQnn_I24UE-1" source="Wwe8WMdHl_TM_MLQPk-Z-4" target="Wwe8WMdHl_TM_MLQPk-Z-29">
          <mxGeometry relative="1" as="geometry" />
        </mxCell>
        <mxCell id="Wwe8WMdHl_TM_MLQPk-Z-72" value="gera" style="startArrow=ERmandOne;startSize=10;;endArrow=ERzeroToMany;endSize=10;;rounded=0;" edge="1" parent="azmtdkim4qkQnn_I24UE-1" source="Wwe8WMdHl_TM_MLQPk-Z-29" target="Wwe8WMdHl_TM_MLQPk-Z-54">
          <mxGeometry relative="1" as="geometry" />
        </mxCell>
      </root>
    </mxGraphModel>
  </diagram>
  <diagram id="jqQ9u2FbBMw1cY3VJz1a" name="planta">
    <mxGraphModel dx="2546" dy="887" grid="0" gridSize="10" guides="0" tooltips="1" connect="1" arrows="1" fold="1" page="0" pageScale="1" pageWidth="827" pageHeight="1169" math="0" shadow="0">
      <root>
        <mxCell id="0" />
        <mxCell id="1" parent="0" />
        <mxCell id="ApOmvSPPlxzQcXAmcCXy-1" value="" style="triangle;whiteSpace=wrap;html=1;strokeColor=light-dark(#66C4FF,#EDEDED);fillColor=#66CFFF;shadow=0;fontColor=#ffffff;" vertex="1" parent="1">
          <mxGeometry x="483" y="123" width="102" height="121" as="geometry" />
        </mxCell>
        <mxCell id="ApOmvSPPlxzQcXAmcCXy-2" value="" style="shape=offPageConnector;whiteSpace=wrap;html=1;strokeColor=light-dark(#66C4FF,#EDEDED);fillColor=#66C4FF;shadow=0;fontColor=#ffffff;" vertex="1" parent="1">
          <mxGeometry x="738" y="228" width="244" height="316" as="geometry" />
        </mxCell>
        <mxCell id="ApOmvSPPlxzQcXAmcCXy-3" value="" style="endArrow=none;html=1;rounded=0;exitX=1;exitY=0.5;exitDx=0;exitDy=0;strokeColor=light-dark(#66c4ff, #ededed);shadow=0;fillColor=#1ba1e2;" edge="1" parent="1" target="ApOmvSPPlxzQcXAmcCXy-17">
          <mxGeometry width="50" height="50" relative="1" as="geometry">
            <mxPoint x="982" y="377.5" as="sourcePoint" />
            <mxPoint x="1180" y="380.0493562231759" as="targetPoint" />
          </mxGeometry>
        </mxCell>
        <mxCell id="ApOmvSPPlxzQcXAmcCXy-4" value="" style="triangle;whiteSpace=wrap;html=1;strokeColor=light-dark(#66C4FF,#EDEDED);fillColor=#66C4FF;shadow=0;fontColor=#ffffff;" vertex="1" parent="1">
          <mxGeometry x="607" y="124" width="102" height="121" as="geometry" />
        </mxCell>
        <mxCell id="ApOmvSPPlxzQcXAmcCXy-5" value="" style="endArrow=none;html=1;rounded=0;entryX=0.5;entryY=0;entryDx=0;entryDy=0;exitX=1;exitY=0.5;exitDx=0;exitDy=0;strokeColor=light-dark(#66c4ff, #ededed);shadow=0;fillColor=#1ba1e2;" edge="1" parent="1" source="ApOmvSPPlxzQcXAmcCXy-4" target="ApOmvSPPlxzQcXAmcCXy-2">
          <mxGeometry width="50" height="50" relative="1" as="geometry">
            <mxPoint x="647" y="411" as="sourcePoint" />
            <mxPoint x="730" y="184.5" as="targetPoint" />
            <Array as="points">
              <mxPoint x="860" y="185" />
            </Array>
          </mxGeometry>
        </mxCell>
        <mxCell id="ApOmvSPPlxzQcXAmcCXy-6" value="" style="rounded=0;whiteSpace=wrap;html=1;fillColor=#66C4FF;strokeColor=light-dark(#66c4ff, #ededed);shadow=0;fontColor=#ffffff;" vertex="1" parent="1">
          <mxGeometry x="160" y="60" width="284" height="533" as="geometry" />
        </mxCell>
        <mxCell id="ApOmvSPPlxzQcXAmcCXy-7" value="" style="endArrow=none;html=1;rounded=0;entryX=1;entryY=0.25;entryDx=0;entryDy=0;exitX=0;exitY=0.5;exitDx=0;exitDy=0;strokeColor=light-dark(#66c4ff, #ededed);shadow=0;fillColor=#1ba1e2;" edge="1" parent="1" source="ApOmvSPPlxzQcXAmcCXy-1" target="ApOmvSPPlxzQcXAmcCXy-6">
          <mxGeometry width="50" height="50" relative="1" as="geometry">
            <mxPoint x="577" y="385" as="sourcePoint" />
            <mxPoint x="627" y="335" as="targetPoint" />
          </mxGeometry>
        </mxCell>
        <mxCell id="ApOmvSPPlxzQcXAmcCXy-8" value="" style="endArrow=none;html=1;rounded=0;entryX=1;entryY=0.5;entryDx=0;entryDy=0;exitX=0;exitY=0.5;exitDx=0;exitDy=0;strokeColor=light-dark(#66c4ff, #ededed);shadow=0;fillColor=#1ba1e2;" edge="1" parent="1" source="ApOmvSPPlxzQcXAmcCXy-4" target="ApOmvSPPlxzQcXAmcCXy-1">
          <mxGeometry width="50" height="50" relative="1" as="geometry">
            <mxPoint x="505" y="425" as="sourcePoint" />
            <mxPoint x="555" y="375" as="targetPoint" />
          </mxGeometry>
        </mxCell>
        <mxCell id="ApOmvSPPlxzQcXAmcCXy-9" value="" style="endArrow=none;html=1;rounded=0;exitX=0.5;exitY=1;exitDx=0;exitDy=0;strokeColor=light-dark(#66c4ff, #ededed);shadow=0;fillColor=#1ba1e2;" edge="1" parent="1" source="ApOmvSPPlxzQcXAmcCXy-6" target="ApOmvSPPlxzQcXAmcCXy-14">
          <mxGeometry width="50" height="50" relative="1" as="geometry">
            <mxPoint x="579" y="753" as="sourcePoint" />
            <mxPoint x="825" y="710.4686379928316" as="targetPoint" />
            <Array as="points">
              <mxPoint x="302" y="710" />
            </Array>
          </mxGeometry>
        </mxCell>
        <mxCell id="ApOmvSPPlxzQcXAmcCXy-10" value="" style="endArrow=none;html=1;rounded=0;entryX=0.5;entryY=1;entryDx=0;entryDy=0;strokeColor=light-dark(#66c4ff, #ededed);shadow=0;fillColor=#1ba1e2;" edge="1" parent="1" source="ApOmvSPPlxzQcXAmcCXy-13" target="ApOmvSPPlxzQcXAmcCXy-2">
          <mxGeometry width="50" height="50" relative="1" as="geometry">
            <mxPoint x="860" y="675" as="sourcePoint" />
            <mxPoint x="800" y="530" as="targetPoint" />
          </mxGeometry>
        </mxCell>
        <mxCell id="ApOmvSPPlxzQcXAmcCXy-11" value="" style="endArrow=none;html=1;rounded=0;strokeColor=light-dark(#66c4ff, #ededed);shadow=0;fillColor=#1ba1e2;" edge="1" parent="1" target="ApOmvSPPlxzQcXAmcCXy-16">
          <mxGeometry width="50" height="50" relative="1" as="geometry">
            <mxPoint x="982" y="272.0464788732395" as="sourcePoint" />
            <mxPoint x="1215" y="345" as="targetPoint" />
            <Array as="points">
              <mxPoint x="1215" y="275" />
            </Array>
          </mxGeometry>
        </mxCell>
        <mxCell id="ApOmvSPPlxzQcXAmcCXy-12" value="" style="group;strokeColor=none;" vertex="1" connectable="0" parent="1">
          <mxGeometry x="818" y="696" width="77" height="71" as="geometry" />
        </mxCell>
        <mxCell id="ApOmvSPPlxzQcXAmcCXy-13" value="" style="verticalLabelPosition=bottom;verticalAlign=top;html=1;shape=mxgraph.basic.donut;dx=25;fillColor=#66C4FF;strokeColor=light-dark(#66c4ff, #ededed);fontColor=#ffffff;" vertex="1" parent="ApOmvSPPlxzQcXAmcCXy-12">
          <mxGeometry x="7" width="70" height="71" as="geometry" />
        </mxCell>
        <mxCell id="ApOmvSPPlxzQcXAmcCXy-14" value="" style="verticalLabelPosition=bottom;verticalAlign=top;html=1;shape=mxgraph.basic.rect;fillColor2=none;strokeWidth=1;size=20;indent=5;fillColor=#66C4FF;strokeColor=light-dark(#66c4ff, #ededed);" vertex="1" parent="ApOmvSPPlxzQcXAmcCXy-12">
          <mxGeometry width="42" height="25" as="geometry" />
        </mxCell>
        <mxCell id="ApOmvSPPlxzQcXAmcCXy-15" value="" style="group;strokeColor=none;" vertex="1" connectable="0" parent="1">
          <mxGeometry x="1174" y="366" width="77" height="71" as="geometry" />
        </mxCell>
        <mxCell id="ApOmvSPPlxzQcXAmcCXy-16" value="" style="verticalLabelPosition=bottom;verticalAlign=top;html=1;shape=mxgraph.basic.donut;dx=25;fillColor=#66C4FF;strokeColor=light-dark(#66c4ff, #ededed);fontColor=#ffffff;" vertex="1" parent="ApOmvSPPlxzQcXAmcCXy-15">
          <mxGeometry x="7" width="70" height="71" as="geometry" />
        </mxCell>
        <mxCell id="ApOmvSPPlxzQcXAmcCXy-17" value="" style="verticalLabelPosition=bottom;verticalAlign=top;html=1;shape=mxgraph.basic.rect;fillColor2=none;strokeWidth=1;size=20;indent=5;fillColor=#66C4FF;strokeColor=light-dark(#66c4ff, #ededed);" vertex="1" parent="ApOmvSPPlxzQcXAmcCXy-15">
          <mxGeometry width="42" height="25" as="geometry" />
        </mxCell>
        <mxCell id="ApOmvSPPlxzQcXAmcCXy-18" value="" style="rounded=0;whiteSpace=wrap;html=1;fillColor=none;strokeColor=light-dark(#ffffff, #ededed);" vertex="1" parent="1">
          <mxGeometry x="184" y="186" width="64" height="255" as="geometry" />
        </mxCell>
        <mxCell id="ApOmvSPPlxzQcXAmcCXy-19" value="" style="rounded=0;whiteSpace=wrap;html=1;fillColor=none;strokeColor=light-dark(#66C4FF,#EDEDED);" vertex="1" parent="1">
          <mxGeometry x="483" y="548" width="310" height="143" as="geometry" />
        </mxCell>
        <mxCell id="ApOmvSPPlxzQcXAmcCXy-20" value="" style="rounded=0;whiteSpace=wrap;html=1;fillColor=none;strokeColor=light-dark(#ffffff, #ededed);" vertex="1" parent="1">
          <mxGeometry x="483" y="275" width="66" height="60" as="geometry" />
        </mxCell>
        <mxCell id="ApOmvSPPlxzQcXAmcCXy-21" value="" style="rounded=0;whiteSpace=wrap;html=1;fillColor=none;strokeColor=light-dark(#ffffff, #ededed);" vertex="1" parent="1">
          <mxGeometry x="607" y="273" width="66" height="60" as="geometry" />
        </mxCell>
        <mxCell id="ApOmvSPPlxzQcXAmcCXy-22" value="" style="rounded=0;whiteSpace=wrap;html=1;strokeColor=light-dark(#ffffff, #ededed);fillColor=none;" vertex="1" parent="1">
          <mxGeometry x="763" y="239.5" width="58.25" height="174" as="geometry" />
        </mxCell>
        <mxCell id="ApOmvSPPlxzQcXAmcCXy-23" value="" style="shape=image;verticalLabelPosition=bottom;labelBackgroundColor=default;verticalAlign=top;aspect=fixed;imageAspect=0;image=https://cdn-icons-png.flaticon.com/512/17433/17433096.png;" vertex="1" parent="1">
          <mxGeometry x="615" y="154" width="57" height="57" as="geometry" />
        </mxCell>
        <mxCell id="ApOmvSPPlxzQcXAmcCXy-24" value="" style="shape=image;verticalLabelPosition=bottom;labelBackgroundColor=default;verticalAlign=top;aspect=fixed;imageAspect=0;image=https://cdn-icons-png.flaticon.com/512/17433/17433096.png;" vertex="1" parent="1">
          <mxGeometry x="488" y="154" width="57" height="57" as="geometry" />
        </mxCell>
        <mxCell id="ApOmvSPPlxzQcXAmcCXy-25" value="" style="rounded=0;whiteSpace=wrap;html=1;fillColor=none;strokeColor=light-dark(#66C4FF,#EDEDED);" vertex="1" parent="1">
          <mxGeometry x="936" y="484" width="310" height="143" as="geometry" />
        </mxCell>
        <mxCell id="ApOmvSPPlxzQcXAmcCXy-26" value="" style="rounded=0;whiteSpace=wrap;html=1;fillColor=none;strokeColor=light-dark(#66C4FF,#EDEDED);" vertex="1" parent="1">
          <mxGeometry x="-169" y="245" width="310" height="143" as="geometry" />
        </mxCell>
      </root>
    </mxGraphModel>
  </diagram>
</mxfile>
